<svg id="Capa_1" enable-background="new 0 0 512 512" height="512" viewBox="0 0 512 512" width="512" xmlns="http://www.w3.org/2000/svg"><g><g><circle cx="215.324" cy="307.177" fill="#cbe2ff" r="155.95"/></g><g><path d="m299.2 175.683c15.481 24.219 24.456 52.999 24.456 83.875 0 86.129-69.821 155.95-155.95 155.95-30.876 0-59.656-8.975-83.875-24.456 27.702 43.34 76.242 72.075 131.494 72.075 86.129 0 155.95-69.821 155.95-155.95 0-55.252-28.736-103.791-72.075-131.494z" fill="#bed8fb"/></g><g fill="#9dc6fb"><path d="m299.269 389.218c-1.605-3.811-5.993-5.601-9.806-3.992-3.811 1.606-5.598 5.995-3.992 9.806 5.937 14.091 10.441 28.82 13.443 43.818 4.597-2.924 9.029-6.084 13.282-9.46-3.143-13.728-7.463-27.205-12.927-40.172z"/><path d="m340.255 400.534c-5.3-16.903-12.212-33.301-20.645-48.917-1.965-3.639-6.507-4.996-10.145-3.031s-4.995 6.507-3.031 10.145c9.509 17.609 16.977 36.268 22.248 55.536 4.112-4.35 7.98-8.932 11.573-13.733z"/><path d="m361.823 360.766c-7.385-17.219-16.324-33.789-26.696-49.448-2.283-3.446-6.928-4.39-10.376-2.108-3.447 2.283-4.391 6.929-2.108 10.376 12.493 18.862 22.808 39.108 30.698 60.241 3.231-6.125 6.076-12.486 8.482-19.061z"/></g><g><path d="m260.383 294.062c-1.846 0-3.696-.678-5.143-2.047-40.364-38.167-90.656-62.305-145.44-69.805-4.096-.561-6.963-4.336-6.402-8.433.562-4.096 4.338-6.957 8.433-6.402 57.9 7.928 111.047 33.434 153.697 73.761 3.005 2.841 3.137 7.579.295 10.584-1.471 1.556-3.454 2.342-5.44 2.342z" fill="#9dc6fb"/></g><path d="m299.342 220.905c0 97.304-52.927 186.087-138.341 232.493 6.399 2.378 12.995 4.349 19.759 5.879 82.814-50.675 133.555-140.437 133.555-238.372 0-12.099-.802-24.173-2.343-36.12-5.379-4.253-11.045-8.165-16.964-11.69 2.864 15.699 4.334 31.737 4.334 47.81z" fill="#9dc6fb"/><g><path d="m463.069 333.019h-143.38c-4.253 10.794-9.097 21.291-14.501 31.445h157.881z" fill="#ecbe6b"/></g><g><path d="m463.069 350.06h-150.715c-2.269 4.87-4.651 9.677-7.166 14.403h157.881z" fill="#eab14d"/></g><g><path d="m451.855 320.665h32.069c15.506 0 28.076 12.57 28.076 28.076 0 15.506-12.57 28.076-28.076 28.076h-32.069c-2.757 0-4.991-2.235-4.991-4.991v-46.169c0-2.757 2.235-4.992 4.991-4.992z" fill="#ecbe6b"/></g><g><path d="m491.896 321.82c.747 2.528 1.155 5.202 1.155 7.972 0 15.506-12.57 28.076-28.076 28.076h-18.111v13.958c0 2.757 2.235 4.991 4.991 4.991h32.069c15.506 0 28.076-12.57 28.076-28.076 0-12.736-8.483-23.484-20.104-26.921z" fill="#eab14d"/></g><g><path d="m181.944 273.033-58.57 69.271-59.684 90.335c-1.956 2.96 1.948 6.261 4.542 3.84l79.155-73.872 61.844-73.143c-8.689-6.063-17.803-11.554-27.287-16.431z" fill="#ecbe6b"/></g><g><path d="m137.389 352.611-54.317 50.692-19.382 29.336c-1.956 2.96 1.948 6.261 4.542 3.84l79.155-73.872 61.844-73.143c-3.877-2.705-7.843-5.29-11.884-7.764z" fill="#eab14d"/></g><g><path d="m244.099 333.019h-133.94l-107.517 12.748c-3.523.418-3.523 5.53 0 5.948l107.517 12.749h113.699c7.535-9.903 14.315-20.41 20.241-31.445z" fill="#ecbe6b"/></g><g><path d="m97.753 350.06-65.658-7.785-29.452 3.492c-3.523.418-3.523 5.53 0 5.948l107.517 12.749h113.699c3.552-4.668 6.929-9.475 10.135-14.403h-136.241z" fill="#eab14d"/></g><g><path d="m243.361 329.297c-30.164-33.041-68.857-56.407-111.898-67.572-4.002-1.038-6.405-5.125-5.367-9.127 1.039-4.003 5.123-6.406 9.127-5.368 45.855 11.895 87.072 36.782 119.197 71.971 2.788 3.054-9.582 11.714-11.059 10.096z" fill="#9dc6fb"/></g><path d="m337.005 270.366c-4.056-.761-7.976 1.912-8.74 5.977-14.16 75.412-56.289 141.563-118.747 186.666 1.928.071 3.862.119 5.807.119 6.82 0 13.536-.441 20.124-1.29 24.234-20.163 45.204-43.738 62.499-70.359 22.336-34.375 37.487-72.183 45.033-112.374.764-4.063-1.912-7.976-5.976-8.739z" fill="#9dc6fb"/><path d="m269.326 183.102c-4.101.524-7.001 4.274-6.477 8.376 1.238 9.687 1.866 19.588 1.866 29.427 0 93.358-55.414 176.349-141.4 212.188 4.81 3.521 9.826 6.775 15.032 9.736 39.61-18.466 73.453-47.1 98.417-83.416 28.082-40.853 42.925-88.748 42.925-138.507 0-10.471-.669-21.011-1.987-31.326-.523-4.104-4.272-6.994-8.376-6.478z" fill="#9dc6fb"/><g><path d="m341.626 84.176-114.427 135.334c9.155 5.325 18.008 11.11 26.529 17.326l111.911-132.358z" fill="#ecbe6b"/></g><g><path d="m354.881 95.382-112.787 133.393c3.939 2.604 7.824 5.283 11.633 8.061l111.911-132.358z" fill="#eab14d"/></g><g><path d="m326.181 83.31 20.706-24.489c10.011-11.841 27.726-13.323 39.567-3.312 11.841 10.011 13.323 27.726 3.312 39.567l-20.706 24.489c-1.78 2.105-4.929 2.369-7.034.589l-35.256-29.81c-2.105-1.779-2.369-4.929-.589-7.034z" fill="#ecbe6b"/></g><g><path d="m386.453 55.51c-4.645-3.928-10.195-6.078-15.828-6.536 8.046 10.258 8.075 25.088-.673 35.434l-20.929 24.753 13.002 10.994c2.105 1.78 5.254 1.516 7.034-.589l20.705-24.489c10.013-11.841 8.53-29.556-3.311-39.567z" fill="#eab14d"/></g><g><path d="m269.862 256.927c-1.695 0-3.399-.572-4.801-1.746-29.141-24.391-62.128-42.754-98.042-54.578-3.927-1.294-6.063-5.525-4.77-9.453s5.527-6.06 9.453-4.77c37.723 12.421 72.368 31.705 102.969 57.32 3.171 2.654 3.59 7.376.936 10.546-1.481 1.769-3.606 2.681-5.745 2.681z" fill="#9dc6fb"/></g></g></svg>