<svg height="512" viewBox="0 0 128 128" width="512" xmlns="http://www.w3.org/2000/svg"><g><path d="m123.25 57.493c0 3.706-4.354 6.9-5.115 10.393-.78 3.583 1.834 8.292.335 11.577-1.51 3.311-6.794 4.434-8.95 7.362s-1.634 8.285-4.336 10.743c-2.668 2.427-7.972 1.425-11.1 3.331-3.071 1.871-4.6 7.052-8.038 8.35-3.353 1.265-7.922-1.6-11.554-.945-3.511.631-6.782 4.931-10.49 4.931s-6.979-4.3-10.49-4.932c-3.632-.653-8.2 2.211-11.555.946-3.439-1.3-4.967-6.479-8.038-8.35-3.129-1.906-8.434-.9-11.1-3.332-2.7-2.458-2.19-7.828-4.336-10.743s-7.443-4.051-8.953-7.361c-1.5-3.285 1.115-7.994.334-11.578-.764-3.494-5.114-6.685-5.114-10.392s4.35-6.893 5.115-10.393c.78-3.584-1.834-8.293-.335-11.578 1.51-3.31 6.794-4.433 8.95-7.361s1.634-8.286 4.336-10.744c2.668-2.427 7.972-1.425 11.1-3.331 3.071-1.871 4.6-7.052 8.038-8.35 3.353-1.265 7.922 1.6 11.554.946 3.513-.631 6.784-4.93 10.492-4.93s6.979 4.3 10.49 4.931c3.632.653 8.2-2.211 11.555-.946 3.439 1.3 4.967 6.479 8.038 8.35 3.129 1.907 8.434.905 11.1 3.332 2.7 2.458 2.19 7.829 4.336 10.743 2.155 2.929 7.439 4.051 8.949 7.362 1.5 3.284-1.115 7.993-.335 11.577.767 3.499 5.117 6.687 5.117 10.392z" fill="#ececf1"/><path d="m78.044 48.873c-2.215.535-4.247 2.916-6.745 3.191-2.305.253-4.822-1.607-7.3-1.607s-4.993 1.86-7.3 1.607c-2.5-.275-4.532-2.656-6.746-3.191a11.278 11.278 0 0 0 -3.456-.11v17.058a17.5 17.5 0 0 0 17.503 17.5 17.5 17.5 0 0 0 17.5-17.5v-17.057a11.277 11.277 0 0 0 -3.456.109z" fill="#9b786f"/><path d="m41.955 109.249c-3.439-1.3-4.967-6.479-8.038-8.35-1.55-.944-3.634-1.175-5.667-1.463v19.811a7 7 0 0 0 7 7h2a7 7 0 0 0 7-7v-9.685a5.8 5.8 0 0 1 -2.295-.313z" fill="#9b786f"/><path d="m86.045 109.249c3.439-1.3 4.967-6.479 8.038-8.35 1.55-.944 3.634-1.175 5.667-1.463v19.811a7 7 0 0 1 -7 7h-2a7 7 0 0 1 -7-7v-9.685a5.8 5.8 0 0 0 2.295-.313z" fill="#9b786f"/><g fill="#704c55"><path d="m64 83.321c.591 0 1.174-.031 1.75-.088v-6.012c3.194-.476 5.438-2.239 5.438-4.474a1.772 1.772 0 0 0 -1.746-1.78 1.722 1.722 0 0 0 -1.746 1.72c-.133.332-1.429 1.165-3.7 1.165s-3.562-.833-3.687-1.105a1.75 1.75 0 0 0 -3.5 0c0 2.235 2.243 4 5.437 4.474v6.012c.58.057 1.163.088 1.754.088z"/><path d="m73.131 57.885-3.6-.363a1.75 1.75 0 0 0 -.35 3.478l3.6.364c.059 0 .119.009.178.009a1.75 1.75 0 0 0 .173-3.492z"/><path d="m60.384 59.087a1.755 1.755 0 0 0 -1.917-1.565l-3.6.363a1.75 1.75 0 0 0 .173 3.492c.059 0 .119 0 .178-.009l3.6-.364a1.75 1.75 0 0 0 1.566-1.917z"/><path d="m42.489 48.509c-.041-.018-.075-.046-.116-.065l-16.623 8.017a7.332 7.332 0 0 0 10.517 6.6l10.233-4.931v-9.367a8.723 8.723 0 0 1 -4.011-.254z"/><path d="m85.626 48.444c-.041.019-.075.047-.117.066a8.728 8.728 0 0 1 -4.009.254v9.366l10.233 4.935a7.332 7.332 0 0 0 10.517-6.6z"/></g><path d="m70.847 53.838a11.744 11.744 0 0 1 -3.9-.9 9.641 9.641 0 0 0 -2.947-.73 9.641 9.641 0 0 0 -2.947.732 10.213 10.213 0 0 1 -4.543.863 10.765 10.765 0 0 1 -4.563-1.975 9.126 9.126 0 0 0 -2.4-1.254 10.481 10.481 0 0 0 -3.107-.052 9.589 9.589 0 0 1 -4.649-.41 10.309 10.309 0 0 1 -4.176-4.022 10.435 10.435 0 0 0 -1.329-1.7 1.75 1.75 0 0 1 2.347-2.6 12.923 12.923 0 0 1 1.867 2.318 7.307 7.307 0 0 0 2.693 2.8 7.231 7.231 0 0 0 2.985.127 13.432 13.432 0 0 1 4.192.14 11.639 11.639 0 0 1 3.466 1.708 7.984 7.984 0 0 0 3.06 1.444 7.685 7.685 0 0 0 2.992-.683 12.466 12.466 0 0 1 4.112-.936 12.466 12.466 0 0 1 4.115.933 7.7 7.7 0 0 0 2.992.683 7.984 7.984 0 0 0 3.06-1.444 11.627 11.627 0 0 1 3.466-1.708 13.43 13.43 0 0 1 4.192-.14 7.224 7.224 0 0 0 2.983-.126 7.323 7.323 0 0 0 2.694-2.8 12.923 12.923 0 0 1 1.867-2.316 1.75 1.75 0 0 1 2.347 2.6 10.435 10.435 0 0 0 -1.329 1.7 10.312 10.312 0 0 1 -4.177 4.022 9.593 9.593 0 0 1 -4.647.409 10.521 10.521 0 0 0 -3.108.052 9.137 9.137 0 0 0 -2.4 1.254 10.765 10.765 0 0 1 -4.565 1.973 5.838 5.838 0 0 1 -.643.038z" fill="#babac0"/></g></svg>