<svg xmlns="http://www.w3.org/2000/svg" id="Capa_1" enable-background="new 0 0 497 497" height="512" viewBox="0 0 497 497" width="512" class=""><g transform="matrix(0.895338 0 0 0.895338 26.0084 26.0084)"><g><g fill="#d14a54"><path d="m135.84 265.073c-12.706-24.854-19.873-53.009-19.873-82.839 0-100.645 81.588-182.234 182.233-182.234s182.233 81.589 182.233 182.233-81.588 182.234-182.233 182.234c-56.591 0-107.156-25.795-140.581-66.269" data-original="#D14A54" class="" style="fill:#00AF80" data-old_color="#D14A54"></path><path d="m435.081 302.522-170.014-169.989-130.321 130.321c.365.739.719 1.485 1.094 2.219l21.779 33.125c33.425 40.474 83.991 66.269 140.581 66.269 54.545 0 103.484-23.972 136.881-61.945z" data-original="#D14A54" class="" style="fill:#00AF80" data-old_color="#D14A54"></path><path d="m115.967 182.233c0 28.949 6.767 56.312 18.779 80.621l130.321-130.321-87.169-87.169c-37.966 33.397-61.931 82.331-61.931 136.869z" data-original="#D14A54" class="" style="fill:#00AF80" data-old_color="#D14A54"></path></g><g fill="#de5964"><path d="m332.366 198.8h-134.566l-33.133 33.133h200.627z" data-original="#DE5964" class="active-path" style="fill:#69E781" data-old_color="#DE5964"></path><path d="m299.2 165.667h-68.267l34.134-34.134z" data-original="#DE5964" class="active-path" style="fill:#69E781" data-old_color="#DE5964"></path></g><path d="m432.733 298.2h-366.466c-9.135 0-16.567 7.432-16.567 16.567s7.432 16.567 16.567 16.567h49.7c27.404 0 49.7 22.296 49.7 49.7s-22.296 49.7-49.7 49.7h-16.567c-9.135 0-16.567 7.432-16.567 16.567s7.432 16.567 16.567 16.567h364.467c9.15 0 16.567 7.417 16.567 16.567s-7.417 16.565-16.567 16.565h-364.467c-27.404 0-49.7-22.296-49.7-49.7s22.296-49.7 49.7-49.7h16.567c9.135 0 16.567-7.432 16.567-16.567s-7.432-16.567-16.567-16.567h-49.7c-27.404 0-49.7-22.296-49.7-49.7s22.296-49.7 49.7-49.7h333.398z" fill="#de5964" data-original="#DE5964" class="active-path" style="fill:#69E781" data-old_color="#de5964"></path><path d="m298.2 364.467c39.004 0 75.139-12.263 104.777-33.133h-209.574c29.643 20.873 65.787 33.133 104.797 33.133z" fill="#de5964" data-original="#DE5964" class="active-path" style="fill:#69E781" data-old_color="#de5964"></path><path d="m122.211 134.816c-4.064 15.121-6.244 31.013-6.244 47.417 0 1.873.029 3.74.085 5.6l102.174-102.174-9.726-23.429h-13.703z" fill="#bc3f49" data-original="#BC3F49" class="" style="fill:#E2FFE2" data-old_color="#bc3f49"></path><path d="m121.98 228.763c3.129 11.883 7.428 23.289 12.766 34.091l130.321-130.321-.087-20.033-23.326-3.412z" fill="#bc3f49" data-original="#BC3F49" class="" style="fill:#E2FFE2" data-old_color="#bc3f49"></path><path d="m321.476 1.473-.003.003 157.488 157.488c-10.456-82.035-75.452-147.033-157.485-157.491z" fill="#de5964" data-original="#DE5964" class="active-path" style="fill:#69E781" data-old_color="#de5964"></path><path d="m236.872 10.59 232.972 232.972c4.309-12.059 7.39-24.7 9.078-37.78l-204.271-204.27c-13.08 1.687-25.721 4.769-37.779 9.078z" fill="#de5964" data-original="#DE5964" class="active-path" style="fill:#69E781" data-old_color="#de5964"></path><path d="m177.915 45.349 257.169 257.169c7.378-8.389 13.995-17.461 19.747-27.111l-249.805-249.805c-9.649 5.752-18.721 12.369-27.111 19.747z" fill="#de5964" data-original="#DE5964" class="active-path" style="fill:#69E781" data-old_color="#de5964"></path></g></g> </svg>